<?xml version="1.0" encoding="utf-8"?>
<!-- Generator: Adobe Illustrator 27.1.1, SVG Export Plug-In . SVG Version: 6.00 Build 0)  -->
<svg version="1.1" id="Layer_1" xmlns="http://www.w3.org/2000/svg" xmlns:xlink="http://www.w3.org/1999/xlink" x="0px" y="0px"
	 viewBox="0 0 612 792" style="enable-background:new 0 0 612 792;" xml:space="preserve">
<style type="text/css">
	.st0{fill:#FFFFFF;}
	.st1{fill:#DF6448;}
	.st2{fill:none;}
</style>
<path class="st0" d="M96.54,335.67c-0.2-15.99,10.59-31.41,25.18-37.33c10.63-4.32,21.26-4.56,32.39-2.66
	c7.58,1.29,15.21-0.38,22.72-1.96c18.9-3.99,35.27-13.44,51.33-23.61c16.2-10.26,33.59-17.66,52.63-20.48
	c10.9-1.61,21.93-1.95,32.97-0.74c5.98,0.66,11.91,1.26,17.58,3.5c4.79,1.89,5.9,5.78,1.76,10.07c-8.96,9.26-16.09,19.6-21.21,31.47
	c-4.14,9.6-10.11,18.05-17.45,25.63c-4.84,4.99-8.35,8.83-15.17,10.83c-6.21,1.82-15.14,1.52-18-4.8c-0.77-2.01-2.87-4.84-4.84-4.44
	c-2.17,0.43-1.96,3.18-1.84,4.75c0.17,2.22,0.32,6.17,0.35,8.38c0.33,24.48-7.43,42.99-28.34,56.86
	c-9.46,6.28-20.18,7.16-31.22,5.41c-6.83-1.08-12.92-3.56-17.97-8.42c-8.43-8.12-9.56-18.23-7.97-29.07
	c0.53-3.61,1.04-7.23,1.85-10.79c0.43-1.9,0.47-3.54-1.26-4.56c-1.76-1.04-3.52-0.59-5.07,0.76c-2.84,2.49-5.68,4.98-8.56,7.41
	c-7.43,6.26-16.27,9.71-25.48,12.17c-4.28,1.14-8.53-0.44-12.47-2.08c-6.52-2.71-12.84-5.8-17.13-11.82
	C98.15,345.69,96.33,340.83,96.54,335.67z"/>
<path class="st0" d="M159.83,358.61c-5.96,4.35-12.24,8.06-19.5,9.88c-1.48,0.37-2.1,1.41-2.03,2.98c0.08,1.88,0.76,3.58,1.41,5.27
	c6.53,17.04,17.8,30.32,32.77,40.45c20.27,13.71,42.99,20.75,67.09,23.67c11.28,1.36,22.58,1.13,33.93,0.43
	c15.05-0.92,29.88-3.08,44.54-6.52c3.29-0.77,6.21-1.44,9.2,1.37c2.4,2.25,5.62,3.68,8.79,4.84c15.18,5.52,30.79,6.74,46.7,4.49
	c2.23-0.31,3.21-0.23,2.96,2.37c-0.4,4.19-1.45,8.2-2.8,12.15c-1.38,4.05-3.86,7.64-4.95,11.8c-1.37,5.21,0.92,8.95,6.23,9.78
	c5.57,0.87,10.97,0.25,16.03-2.5c16.8-9.14,30.79-21,38.2-39.26c0.54-1.34,1.19-1.79,2.38-0.46c4.14,4.63,8.74,8.8,12.57,13.77
	c4.48,5.81,8.7,11.78,12.78,17.86c2.58,3.83,6.84,4.45,10.63,1.79c1.26-0.89,2.33-1.96,3.25-3.21c3.42-4.66,5.14-9.93,5.44-15.65
	c0.4-7.56,0.2-15.09-1.35-22.55c-1.54-7.4-3.13-14.78-7.45-21.18c-1.11-1.65-0.59-2.19,1.14-2.16c3.29,0.05,6.49-0.42,9.65-1.36
	c7.74-2.32,13.02-9.91,11.75-17.38c-0.78-4.59-3.83-7.7-7.4-10.42c-6.42-4.9-13.56-8.61-20.51-12.64
	c-6.73-3.9-12.83-8.67-18.92-13.44c-1.12-0.88-2.78-1.87-1.09-3.97c3.65-4.54,4.84-9.75,3.31-15.46c-0.19-0.72-0.22-1.35,0.05-2.07
	c2.44-6.49,0.67-11.97-4.17-16.62c-6.02-5.78-13.07-9.31-21.55-9.53c-1.1-0.03-2.02-0.25-2.56-1.29
	c-2.98-5.76-7.76-10.16-11.56-15.29c-11.51-15.53-26.73-25.76-45.04-31.59c-4.48-1.43-8.99-1.41-13.44,0.22
	c-5.63,2.07-10.63,5.3-15,9.26c-9.19,8.31-16.19,18.29-21.16,29.65c-5.3,12.1-12.93,22.63-21.98,32.13
	c-9.73,10.9-30.42,10.96-33.17,10.85c-1.94-0.15-2.51-1.44-2.45,1.01c0.03,1.11-0.13,3.45-0.1,4.56c-0.68,13.34-5.55,26.47-14,37.55
	c-6.17,8.08-13.05,15.58-22.44,19.89c-11.82,5.43-24.15,5.69-36.76,2.69c-14.1-3.35-26.08-15.71-28.29-30
	c-0.86-5.56-1.1-11.35-0.07-16.93 M362.76,366.43c-0.37,1.36-1.04,2.65-1.69,3.92c-2.52,4.99-6.38,8.08-12.18,7.45
	c-5.61-0.61-10.63-2.76-12.75-8.51c-1.88-5.12,0.29-9.63,3.43-13.58c4.36-5.48,9.14-10.48,16.53-11.82c2.06-0.37,1.58-1.6,0.86-2.93
	c-3.04-5.7-11.96-9.13-18.99-7.12c-3.84,1.1-7.38,2.9-10.73,5.09c-5.22,3.42-7.29,8.55-8.22,14.39c-0.24,1.52,0.02,3.91-2.03,3.86
	c-2.3-0.05-2.27-2.46-2.42-4.28c-0.04-0.51-0.01-1.02-0.01-1.53c0.09-6.32,2.2-11.74,7.17-15.88c4.46-3.72,9.54-6.23,15.07-7.88
	c8.41-2.51,21.67,1.94,25.66,10.37c1.82,3.84,1.78,7.22-1.1,10.45c-0.54,0.6-1.62,1.06-0.53,2.19
	C365.42,355.38,364.25,360.91,362.76,366.43z M444.55,343.57c-2.52,0.49-4.65-1.17-6.3-5.08c-0.71-1.67-1.36-3.39-1.79-5.15
	c-1-4.09,2.15-6.91,6.21-5.67c3.39,1.04,5.58,4.57,5.53,8.9C448.14,340.47,446.75,343.14,444.55,343.57z"/>
<path class="st1" d="M262.62,344.53"/>
<path class="st1" d="M262.32,344.25"/>
<path class="st2" d="M314.56,351.38c0.09-6.32,2.2-11.74,7.17-15.88c4.46-3.72,9.54-6.23,15.07-7.88
	c8.41-2.51,21.67,1.94,25.66,10.37c1.82,3.84,1.78,7.22-1.1,10.45c-0.54,0.6-1.62,1.06-0.53,2.19c4.6,4.77,3.42,10.3,1.93,15.81
	c-0.37,1.36-1.04,2.65-1.69,3.92c-2.52,4.99-6.38,8.08-12.18,7.45c-5.61-0.61-10.63-2.76-12.75-8.51
	c-1.88-5.12,0.29-9.63,3.43-13.58c4.36-5.48,9.14-10.48,16.53-11.82c2.06-0.37,1.58-1.6,0.86-2.93c-3.04-5.7-11.96-9.13-18.99-7.12
	c-3.84,1.1-7.38,2.9-10.73,5.09c-5.22,3.42-7.29,8.55-8.22,14.39c-0.24,1.52,0.02,3.91-2.03,3.86c-2.3-0.05-2.27-2.46-2.42-4.28
	C314.52,352.4,314.56,351.89,314.56,351.38z"/>
</svg>
